<mxfile host="app.diagrams.net" modified="2020-10-14T10:01:49.445Z" agent="5.0 (Windows NT 10.0; Win64; x64) AppleWebKit/537.36 (KHTML, like Gecko) Chrome/86.0.4240.75 Safari/537.36 Edg/86.0.622.38" etag="2sGwYSSLsLK9tsPMMcuI" version="13.8.0" type="github">
  <diagram id="N5VnBSdMHWff927y7lot" name="Page-1">
    <mxGraphModel dx="1422" dy="762" grid="1" gridSize="10" guides="1" tooltips="1" connect="1" arrows="1" fold="1" page="1" pageScale="1" pageWidth="850" pageHeight="1100" math="0" shadow="0">
      <root>
        <mxCell id="0" />
        <mxCell id="1" parent="0" />
        <mxCell id="Hx6A5ebDQ5hfNwpZi7ak-25" value="" style="ellipse;whiteSpace=wrap;html=1;" vertex="1" parent="1">
          <mxGeometry x="320" y="670" width="340" height="170" as="geometry" />
        </mxCell>
        <mxCell id="Hx6A5ebDQ5hfNwpZi7ak-9" value="" style="rounded=0;whiteSpace=wrap;html=1;" vertex="1" parent="1">
          <mxGeometry x="530" y="60" width="220" height="380" as="geometry" />
        </mxCell>
        <mxCell id="Hx6A5ebDQ5hfNwpZi7ak-1" value="&lt;b&gt;IPlanningAp&lt;/b&gt;i&lt;br&gt;&lt;br&gt;GetPlan(long jobId)&lt;br&gt;GetBookingSolution()" style="rounded=0;whiteSpace=wrap;html=1;" vertex="1" parent="1">
          <mxGeometry x="550" y="110" width="140" height="90" as="geometry" />
        </mxCell>
        <mxCell id="Hx6A5ebDQ5hfNwpZi7ak-6" value="AlfaCom&lt;br&gt;&lt;br&gt;TryResolve&amp;lt;IGeoApi&amp;gt;()&lt;br&gt;&lt;br&gt;var res = GetDistance(n1,n2);&lt;br&gt;&lt;br&gt;TryResolve&amp;lt;IPlanningApi&amp;gt;()" style="whiteSpace=wrap;html=1;aspect=fixed;align=left;" vertex="1" parent="1">
          <mxGeometry x="20" y="510" width="200" height="200" as="geometry" />
        </mxCell>
        <mxCell id="Hx6A5ebDQ5hfNwpZi7ak-10" value="AlfaPlanningCommons" style="rounded=0;whiteSpace=wrap;html=1;" vertex="1" parent="1">
          <mxGeometry x="550" y="70" width="150" height="30" as="geometry" />
        </mxCell>
        <mxCell id="Hx6A5ebDQ5hfNwpZi7ak-12" value="" style="group" vertex="1" connectable="0" parent="1">
          <mxGeometry x="30" y="40" width="430" height="430" as="geometry" />
        </mxCell>
        <mxCell id="Hx6A5ebDQ5hfNwpZi7ak-7" value="" style="rounded=0;whiteSpace=wrap;html=1;align=left;" vertex="1" parent="Hx6A5ebDQ5hfNwpZi7ak-12">
          <mxGeometry width="430" height="430" as="geometry" />
        </mxCell>
        <mxCell id="Hx6A5ebDQ5hfNwpZi7ak-2" value="&lt;b&gt;IGeoApi&lt;/b&gt;&lt;br&gt;&lt;br&gt;GetDistance(n1, n2);" style="rounded=0;whiteSpace=wrap;html=1;" vertex="1" parent="Hx6A5ebDQ5hfNwpZi7ak-12">
          <mxGeometry x="40" y="90" width="170" height="100" as="geometry" />
        </mxCell>
        <mxCell id="Hx6A5ebDQ5hfNwpZi7ak-3" value="GeoApi&lt;br&gt;&lt;br&gt;GetDistance(){&lt;br&gt;return RequstSender.Send(saddsaads);&lt;br&gt;&lt;div&gt;&lt;span&gt;}&lt;/span&gt;&lt;/div&gt;" style="whiteSpace=wrap;html=1;aspect=fixed;align=left;" vertex="1" parent="Hx6A5ebDQ5hfNwpZi7ak-12">
          <mxGeometry x="30" y="220" width="190" height="190" as="geometry" />
        </mxCell>
        <mxCell id="Hx6A5ebDQ5hfNwpZi7ak-5" style="edgeStyle=orthogonalEdgeStyle;rounded=0;orthogonalLoop=1;jettySize=auto;html=1;exitX=0.5;exitY=1;exitDx=0;exitDy=0;entryX=0.5;entryY=0;entryDx=0;entryDy=0;" edge="1" parent="Hx6A5ebDQ5hfNwpZi7ak-12" source="Hx6A5ebDQ5hfNwpZi7ak-2" target="Hx6A5ebDQ5hfNwpZi7ak-3">
          <mxGeometry relative="1" as="geometry" />
        </mxCell>
        <mxCell id="Hx6A5ebDQ5hfNwpZi7ak-8" value="AlfaGeoCommons" style="rounded=0;whiteSpace=wrap;html=1;" vertex="1" parent="Hx6A5ebDQ5hfNwpZi7ak-12">
          <mxGeometry x="70" y="40" width="250" height="30" as="geometry" />
        </mxCell>
        <mxCell id="Hx6A5ebDQ5hfNwpZi7ak-11" value="internal GetDistance : CoreRequets&lt;br&gt;&lt;br&gt;&lt;br&gt;" style="whiteSpace=wrap;html=1;aspect=fixed;" vertex="1" parent="Hx6A5ebDQ5hfNwpZi7ak-12">
          <mxGeometry x="250" y="110" width="90" height="90" as="geometry" />
        </mxCell>
        <mxCell id="Hx6A5ebDQ5hfNwpZi7ak-13" value="PlanningContainer" style="ellipse;whiteSpace=wrap;html=1;" vertex="1" parent="1">
          <mxGeometry x="100" y="760" width="120" height="80" as="geometry" />
        </mxCell>
        <mxCell id="Hx6A5ebDQ5hfNwpZi7ak-14" value="GeoContainer" style="ellipse;whiteSpace=wrap;html=1;" vertex="1" parent="1">
          <mxGeometry x="365" y="710" width="120" height="80" as="geometry" />
        </mxCell>
        <mxCell id="Hx6A5ebDQ5hfNwpZi7ak-15" value="AlfaComContainer" style="ellipse;whiteSpace=wrap;html=1;" vertex="1" parent="1">
          <mxGeometry x="340" y="960" width="120" height="80" as="geometry" />
        </mxCell>
        <mxCell id="Hx6A5ebDQ5hfNwpZi7ak-16" value="" style="curved=1;endArrow=classic;html=1;exitX=0.417;exitY=-0.037;exitDx=0;exitDy=0;exitPerimeter=0;entryX=1;entryY=0;entryDx=0;entryDy=0;" edge="1" parent="1" source="Hx6A5ebDQ5hfNwpZi7ak-15" target="Hx6A5ebDQ5hfNwpZi7ak-15">
          <mxGeometry width="50" height="50" relative="1" as="geometry">
            <mxPoint x="400" y="810" as="sourcePoint" />
            <mxPoint x="450" y="760" as="targetPoint" />
            <Array as="points">
              <mxPoint x="380" y="880" />
              <mxPoint x="390" y="850" />
              <mxPoint x="390" y="810" />
              <mxPoint x="510" y="830" />
            </Array>
          </mxGeometry>
        </mxCell>
        <mxCell id="Hx6A5ebDQ5hfNwpZi7ak-18" value="" style="endArrow=classic;html=1;entryX=0.283;entryY=-0.012;entryDx=0;entryDy=0;entryPerimeter=0;exitX=0.942;exitY=0.775;exitDx=0;exitDy=0;exitPerimeter=0;" edge="1" parent="1" source="Hx6A5ebDQ5hfNwpZi7ak-13" target="Hx6A5ebDQ5hfNwpZi7ak-15">
          <mxGeometry width="50" height="50" relative="1" as="geometry">
            <mxPoint x="270" y="880" as="sourcePoint" />
            <mxPoint x="320" y="830" as="targetPoint" />
          </mxGeometry>
        </mxCell>
        <mxCell id="Hx6A5ebDQ5hfNwpZi7ak-21" value="" style="endArrow=none;html=1;" edge="1" parent="1" source="Hx6A5ebDQ5hfNwpZi7ak-13">
          <mxGeometry width="50" height="50" relative="1" as="geometry">
            <mxPoint x="400" y="810" as="sourcePoint" />
            <mxPoint x="366" y="780" as="targetPoint" />
            <Array as="points">
              <mxPoint x="366" y="780" />
            </Array>
          </mxGeometry>
        </mxCell>
        <mxCell id="Hx6A5ebDQ5hfNwpZi7ak-22" value="" style="endArrow=none;html=1;entryX=0.8;entryY=0.95;entryDx=0;entryDy=0;entryPerimeter=0;" edge="1" parent="1" source="Hx6A5ebDQ5hfNwpZi7ak-15" target="Hx6A5ebDQ5hfNwpZi7ak-13">
          <mxGeometry width="50" height="50" relative="1" as="geometry">
            <mxPoint x="400" y="810" as="sourcePoint" />
            <mxPoint x="450" y="760" as="targetPoint" />
          </mxGeometry>
        </mxCell>
        <mxCell id="Hx6A5ebDQ5hfNwpZi7ak-23" value="" style="endArrow=classic;html=1;entryX=1;entryY=0.5;entryDx=0;entryDy=0;exitX=0.05;exitY=0.725;exitDx=0;exitDy=0;exitPerimeter=0;" edge="1" parent="1" source="Hx6A5ebDQ5hfNwpZi7ak-14" target="Hx6A5ebDQ5hfNwpZi7ak-13">
          <mxGeometry width="50" height="50" relative="1" as="geometry">
            <mxPoint x="400" y="910" as="sourcePoint" />
            <mxPoint x="450" y="860" as="targetPoint" />
            <Array as="points">
              <mxPoint x="350" y="820" />
            </Array>
          </mxGeometry>
        </mxCell>
        <mxCell id="Hx6A5ebDQ5hfNwpZi7ak-24" value="GeoContainer" style="ellipse;whiteSpace=wrap;html=1;" vertex="1" parent="1">
          <mxGeometry x="480" y="740" width="120" height="80" as="geometry" />
        </mxCell>
      </root>
    </mxGraphModel>
  </diagram>
</mxfile>
